<?xml version="1.0" encoding="UTF-8"?>
<svg version="1.1" xmlns="http://www.w3.org/2000/svg" width="378" height="371">
<path d="M0 0 C124.74 0 249.48 0 378 0 C378 122.43 378 244.86 378 371 C253.26 371 128.52 371 0 371 C0 248.57 0 126.14 0 0 Z " fill="#218B3B" transform="translate(0,0)"/>
<path d="M0 0 C124.74 0 249.48 0 378 0 C378 122.43 378 244.86 378 371 C253.26 371 128.52 371 0 371 C0 248.57 0 126.14 0 0 Z M83 46 C82.47841309 46.42007324 81.95682617 46.84014648 81.41943359 47.27294922 C63.1749699 62.04488515 48.83117861 78.71153396 37 99 C36.63777344 99.61987793 36.27554688 100.23975586 35.90234375 100.87841797 C24.53176975 120.60384639 17.61085596 142.38270127 15 165 C14.88914062 165.90878906 14.77828125 166.81757813 14.6640625 167.75390625 C13.075713 183.18665345 13.60898452 198.69483681 16 214 C16.11827148 214.79986328 16.23654297 215.59972656 16.35839844 216.42382812 C19.42027378 236.60259944 26.28365545 255.10577219 36 273 C36.31404785 273.5971582 36.6280957 274.19431641 36.95166016 274.80957031 C44.78059747 289.68901099 55.45224293 301.8999589 67 314 C67.60070312 314.65355469 68.20140625 315.30710937 68.8203125 315.98046875 C91.80671231 340.29522835 124.88964826 354.96301935 157 362 C158.0725 362.23589844 159.145 362.47179687 160.25 362.71484375 C203.18451359 371.26430358 251.45218317 360.53600568 287.82568359 336.80908203 C326.90152304 310.67072731 355.28440614 271.30531576 365 225 C365.14421387 224.31631348 365.28842773 223.63262695 365.43701172 222.92822266 C374.90519888 177.2061445 366.14787862 128.93676344 340.56640625 89.78125 C333.59571244 79.38464112 325.62135367 70.05307548 317 61 C316.01966797 59.94039062 316.01966797 59.94039062 315.01953125 58.859375 C288.90084743 31.45981756 250.19620684 14.29379032 213 10 C212.09121094 9.88914062 211.18242187 9.77828125 210.24609375 9.6640625 C165.23200615 5.03118005 118.33702938 17.36238073 83 46 Z " fill="#FAFBFB" transform="translate(0,0)"/>
<path d="M0 0 C1.21961025 -0.00573832 1.21961025 -0.00573832 2.46385908 -0.01159257 C5.19769155 -0.02193974 7.93131466 -0.0179272 10.66516113 -0.01396179 C12.62130427 -0.01830728 14.57744571 -0.02348988 16.53358459 -0.02944946 C21.85370575 -0.04286729 27.17375598 -0.04341511 32.49389076 -0.04088616 C36.9300753 -0.03981848 41.36624537 -0.04469454 45.80242682 -0.04949158 C56.26433228 -0.0605961 66.72620184 -0.06101867 77.18811035 -0.05497742 C87.99393628 -0.04893371 98.79963212 -0.06125658 109.60543585 -0.08254749 C118.87256627 -0.10013774 128.13965519 -0.10616898 137.4068017 -0.10290974 C142.94628083 -0.10109285 148.48566715 -0.10377351 154.02513123 -0.11762428 C159.23225112 -0.13015641 164.4391675 -0.12830247 169.6462841 -0.11521339 C171.56074529 -0.11283807 173.47522059 -0.11561624 175.3896656 -0.12383652 C177.99642612 -0.13422513 180.60249368 -0.12626744 183.20922852 -0.11352539 C183.97274234 -0.12089968 184.73625617 -0.12827396 185.52290678 -0.13587171 C188.47348005 -0.10537858 190.59108006 -0.07300771 193.10451508 1.56026936 C194.92335655 4.65276989 193.88241686 7.94696752 193.10461426 11.26069641 C192.12907422 14.55147693 190.96105229 17.75200727 189.75305176 20.96382141 C189.4159317 21.88169434 189.07881165 22.79956726 188.73147583 23.74525452 C187.65549579 26.67008465 186.56804157 29.59047835 185.47961426 32.51069641 C184.06792693 36.3273609 182.66065018 40.1456474 181.25305176 43.96382141 C180.72947083 45.38005798 180.72947083 45.38005798 180.1953125 46.8249054 C177.56814078 53.94781288 175.0358352 61.10053113 172.54153442 68.27088928 C170.04153066 75.45755131 167.47782148 82.61788694 164.85461426 89.76069641 C164.2242627 91.50673157 164.2242627 91.50673157 163.58117676 93.28804016 C163.17125488 94.40307922 162.76133301 95.51811829 162.33898926 96.66694641 C161.98030762 97.64985657 161.62162598 98.63276672 161.2520752 99.64546204 C160.07041009 102.3386528 159.153022 104.14802376 157.10461426 106.26069641 C154.36721706 106.75847435 154.36721706 106.75847435 150.98680115 106.75517273 C149.70661606 106.76356171 148.42643097 106.77195068 147.10745239 106.78059387 C145.68584903 106.76962674 144.26424869 106.75826077 142.84265137 106.74653625 C141.34793261 106.74868175 139.85321549 106.7525589 138.35850525 106.75804138 C134.2965308 106.76774625 130.23499494 106.75241815 126.17307353 106.7321353 C121.92724134 106.71458902 117.68142319 106.71808888 113.43556213 106.71885681 C106.30588424 106.71698299 99.17637646 106.69960709 92.04675293 106.6723175 C83.79594579 106.64085376 75.54532494 106.63032167 67.29446214 106.63178861 C59.36602112 106.633008 51.43764097 106.6228086 43.50921822 106.60620499 C40.13086027 106.59913186 36.75252385 106.59547743 33.37415886 106.59441757 C29.39902582 106.59241296 25.42405006 106.5802385 21.44896889 106.5600853 C19.98722674 106.55422881 18.5254665 106.55178587 17.06371307 106.55294037 C15.074273 106.55391729 13.08483969 106.5414067 11.09544373 106.52812195 C9.9802835 106.52477026 8.86512327 106.52141857 7.71617031 106.51796532 C5.10461426 106.26069641 5.10461426 106.26069641 3.10461426 104.26069641 C2.61257531 102.12895604 2.22342564 99.97306774 1.88586426 97.81147766 C1.78245728 97.16180527 1.67905029 96.51213287 1.57250977 95.84277344 C1.24222403 93.75403409 0.92348501 91.66370538 0.60461426 89.57319641 C0.39047992 88.21566245 0.175643 86.85823911 -0.03991699 85.50093079 C-1.29050854 77.55948943 -2.40865743 69.60620834 -3.45300293 61.63496399 C-4.02984539 57.23510765 -4.64289713 52.84107374 -5.27038574 48.44819641 C-5.39196045 47.59000305 -5.51353516 46.73180969 -5.63879395 45.84761047 C-6.37461066 40.70831211 -7.15652623 35.57852585 -7.97741699 30.45210266 C-8.160625 29.29879456 -8.34383301 28.14548645 -8.53259277 26.95722961 C-8.89077531 24.7139009 -9.25473431 22.47148435 -9.62536621 20.23017883 C-10.59028575 14.17377897 -11.37333729 8.39337335 -10.89538574 2.26069641 C-7.17133792 -0.22200214 -4.30955773 -0.02133192 0 0 Z " fill="#27A445" transform="translate(111.8953857421875,116.73930358886719)"/>
<path d="M0 0 C0.84563179 -0.00850552 1.69126357 -0.01701104 2.56252056 -0.0257743 C5.38317962 -0.04797833 8.20251121 -0.03462715 11.02320862 -0.02119446 C13.0506535 -0.02961069 15.07809056 -0.04013716 17.10551453 -0.0526123 C22.60353462 -0.0796559 28.10110084 -0.07496063 33.59915805 -0.06291175 C38.19167195 -0.055778 42.78410204 -0.06428141 47.37660939 -0.07281715 C58.21184819 -0.09276763 69.04686635 -0.08720205 79.88209534 -0.06513977 C91.05501732 -0.04277624 102.22736152 -0.06037522 113.40022892 -0.09818906 C122.99876189 -0.12943204 132.59711608 -0.13733615 142.19569355 -0.12623531 C147.92595012 -0.11975054 153.6558733 -0.12173985 159.38609123 -0.14555931 C164.77489093 -0.16681918 170.16287586 -0.15882271 175.5516243 -0.12846565 C177.52687193 -0.122141 179.50218289 -0.1259924 181.47738457 -0.14087677 C199.51547069 -0.26576595 199.51547069 -0.26576595 205.10427952 5.07512188 C209.08279384 10.06406498 209.97542106 14.36485942 209.35353088 20.64164734 C208.57735876 23.7530266 207.4726158 26.69952011 206.31837463 29.68852234 C206.00203568 30.53980713 205.68569672 31.39109192 205.35977173 32.26817322 C204.34902136 34.98073903 203.32075367 37.68623412 202.29103088 40.39164734 C201.29467188 43.04358115 200.30204911 45.69689114 199.30986023 48.35038757 C198.64817262 50.11934133 197.98498133 51.88773334 197.32029724 53.65556335 C194.69370581 60.66109413 192.19092636 67.70540731 189.74633789 74.77635193 C187.56381177 81.08675447 185.2684328 87.35109374 182.93347168 93.60650635 C181.391932 97.73746875 179.9237955 101.88305564 178.53321838 106.06742859 C178.23093323 106.96719421 177.92864807 107.86695984 177.61720276 108.79399109 C177.04209699 110.51551647 176.477566 112.2406261 175.92579651 113.96977234 C173.80674341 120.28030211 171.5285419 124.74453521 165.61038208 128.28071594 C159.58689371 130.70719725 152.9003483 130.05872391 146.51734924 130.02983093 C145.00882589 130.03390001 143.50030553 130.03924378 141.99179077 130.04576111 C137.90921319 130.05939943 133.82686388 130.05415086 129.74428248 130.04462385 C125.46563413 130.03701055 121.18700487 130.04407737 116.90835571 130.04878235 C109.72525027 130.05423445 102.54223748 130.04706201 95.35914612 130.03276062 C87.06058805 130.01642892 78.76225106 130.02172854 70.46369833 130.03823984 C63.33059453 130.05186285 56.1975572 130.05377057 49.0644446 130.04592383 C44.80763505 130.04125259 40.55092935 130.04060745 36.29412651 130.05053329 C32.2926278 130.0592128 28.29141364 130.05316325 24.2899456 130.03585052 C22.82342501 130.03189118 21.35688038 130.03301028 19.89036942 130.03963852 C17.88505166 130.04786498 15.87968142 130.03570868 13.87438965 130.02259827 C12.19284995 130.02090165 12.19284995 130.02090165 10.47733974 130.01917076 C4.36002149 129.27987107 0.32149475 126.31798191 -3.39646912 121.62211609 C-7.35572571 115.34916892 -7.08487587 106.93911206 -7.82493591 99.73271179 C-8.52125144 93.16812785 -9.65442583 86.75775769 -10.96287537 80.29008484 C-12.28574304 73.22975111 -12.64646912 66.89260614 -12.64646912 59.64164734 C-29.80646912 59.64164734 -46.96646912 59.64164734 -64.64646912 59.64164734 C-64.64646912 55.35164734 -64.64646912 51.06164734 -64.64646912 46.64164734 C-48.47646912 46.64164734 -32.30646912 46.64164734 -15.64646912 46.64164734 C-16.14146912 43.67164734 -16.14146912 43.67164734 -16.64646912 40.64164734 C-27.20646912 40.31164734 -37.76646912 39.98164734 -48.64646912 39.64164734 C-48.64646912 35.68164734 -48.64646912 31.72164734 -48.64646912 27.64164734 C-38.74646912 27.64164734 -28.84646912 27.64164734 -18.64646912 27.64164734 C-18.89396912 25.31102234 -19.14146912 22.98039734 -19.39646912 20.57914734 C-20.0641748 12.14891192 -20.0641748 12.14891192 -18.14646912 8.51664734 C-12.7111703 2.2660537 -8.27678114 -0.11117561 0 0 Z M-7.64646912 13.64164734 C-8.20950266 20.86602584 -7.01079235 27.77461837 -5.83396912 34.89164734 C-5.46196635 37.22223159 -5.09088328 39.55296282 -4.72068787 41.88383484 C-4.53683533 43.03206726 -4.35298279 44.18029968 -4.16355896 45.36332703 C-3.44666869 49.90837073 -2.78824023 54.46047663 -2.14646912 59.01664734 C-2.02940613 59.84237244 -1.91234314 60.66809753 -1.79173279 61.5188446 C-1.2510915 65.33886871 -0.71418081 69.15941313 -0.17771912 72.98002625 C2.29598668 90.63877357 2.29598668 90.63877357 4.97853088 108.26664734 C5.08939026 109.0003656 5.20024963 109.73408386 5.31446838 110.49003601 C5.92750882 114.48875208 5.92750882 114.48875208 8.35353088 117.64164734 C11.08503475 117.95856652 11.08503475 117.95856652 14.33763123 117.92253113 C15.61355133 117.93395142 16.88947144 117.9453717 18.20405579 117.95713806 C19.6261135 117.95962889 21.04817166 117.96187906 22.4702301 117.96391296 C23.96155795 117.97316728 25.45288106 117.98321633 26.94419861 117.9940033 C31.00206873 118.02027441 35.05987264 118.03314548 39.11781454 118.04202461 C41.65161758 118.04788208 44.18540242 118.05609089 46.71919632 118.06503296 C54.64280677 118.0923883 62.56637576 118.1117192 70.49003017 118.11943674 C79.64449174 118.12840145 88.79835653 118.1635099 97.9526366 118.22143793 C105.02360638 118.26463351 112.09440803 118.2848432 119.16550839 118.28751898 C123.39122568 118.28961778 127.61638223 118.30148798 131.84196091 118.3371582 C135.81649534 118.37005596 139.79004567 118.37446403 143.76466751 118.35688019 C145.22399273 118.35533591 146.68337014 118.36407217 148.14256287 118.38379669 C155.49987795 118.84140002 155.49987795 118.84140002 162.08914852 116.33603954 C163.38873039 114.58481402 163.38873039 114.58481402 164.35353088 111.64164734 C164.67877747 110.9105072 165.00402405 110.17936707 165.33912659 109.42607117 C165.56688782 108.74053162 165.79464905 108.05499207 166.02931213 107.34867859 C166.30065979 106.55139343 166.57200745 105.75410828 166.85157776 104.93266296 C167.12034729 104.11475281 167.38911682 103.29684265 167.66603088 102.45414734 C171.02147367 92.43827676 174.68691497 82.54664309 178.35353088 72.64164734 C181.27387332 64.75128305 184.17712494 56.85502267 187.05421448 48.94877625 C187.92903778 46.55377898 188.80968787 44.16090294 189.69581604 41.77006531 C190.9923088 38.26891769 192.26860407 34.76097614 193.54103088 31.25102234 C193.93983459 30.18744507 194.33863831 29.1238678 194.74952698 28.02806091 C196.74027153 22.46959467 198.10495072 18.39716163 196.35353088 12.64164734 C193.25418125 11.09197252 189.97993259 11.50106161 186.57839966 11.50793457 C185.36007105 11.50453624 185.36007105 11.50453624 184.11712974 11.50106925 C181.38024207 11.49471073 178.64340367 11.49555979 175.9065094 11.49638367 C173.95051509 11.49339334 171.99452137 11.48999111 170.03852844 11.48620605 C164.71423193 11.47734929 159.38995148 11.47502725 154.06564832 11.47439027 C149.62703275 11.47344257 145.18842095 11.46976591 140.74980682 11.46621817 C130.28169403 11.45806736 119.81358984 11.45563452 109.34547424 11.4563446 C98.53231464 11.45694567 87.71920488 11.44638945 76.90605789 11.43060094 C67.63470746 11.417544 58.36337334 11.41215992 49.09201378 11.41280001 C43.54918444 11.41305553 38.00639939 11.41017479 32.46357918 11.39962196 C27.25240962 11.3899719 22.04132696 11.38984046 16.83015442 11.3971386 C14.91408093 11.39818828 12.99800211 11.39579897 11.08193779 11.38977814 C8.47307015 11.38210925 5.86450642 11.3866689 3.25564575 11.39440918 C2.4914498 11.38926562 1.72725386 11.38412205 0.93990046 11.37882262 C-2.80620525 11.40350625 -4.44663656 11.50842564 -7.64646912 13.64164734 Z " fill="#FAFDFB" transform="translate(108.64646911621094,105.35835266113281)"/>
<path d="M0 0 C22.77 0 45.54 0 69 0 C69 24.42 69 48.84 69 74 C46.23 74 23.46 74 0 74 C0 49.58 0 25.16 0 0 Z " fill="#1B145E" transform="translate(188,141)"/>
<path d="M0 0 C8.58 0 17.16 0 26 0 C26 23.76 26 47.52 26 72 C22.04 72 18.08 72 14 72 C14.020625 73.794375 14.04125 75.58875 14.0625 77.4375 C14.0838122 79.29166122 14.07226502 81.14712498 14 83 C12.33969118 84.66030882 10.40246403 84.28918251 8.125 84.375 C3.32274941 84.31325678 3.32274941 84.31325678 0.875 81.9375 C-0.14971266 78.49739321 -0.21005969 75.5710148 0 72 C-0.73605469 72.09796875 -1.47210938 72.1959375 -2.23046875 72.296875 C-5 72 -5 72 -7.23828125 69.953125 C-8.26501953 68.61507812 -8.26501953 68.61507812 -9.3125 67.25 C-10.00988281 66.36828125 -10.70726562 65.4865625 -11.42578125 64.578125 C-13 62 -13 62 -13 58 C-13.5990918 57.89059082 -14.19818359 57.78118164 -14.81542969 57.66845703 C-18.45813956 56.55382364 -20.68906237 53.57135037 -23.25 50.875 C-27.50706466 46.47659217 -31.75554617 42.31503993 -36.609375 38.5625 C-38.44466608 36.50037519 -38.65399264 34.69521521 -39 32 C-40.010625 31.938125 -41.02125 31.87625 -42.0625 31.8125 C-45.85130627 31.24804519 -48.51764284 29.7799639 -51.71484375 27.7421875 C-53 26 -53 26 -53 19 C-48.38 19 -43.76 19 -39 19 C-39.04125 17.22625 -39.0825 15.4525 -39.125 13.625 C-39.1953125 10.6015625 -39.1953125 10.6015625 -39 8 C-37 6 -37 6 -34.6171875 5.8046875 C-33.71226562 5.82789063 -32.80734375 5.85109375 -31.875 5.875 C-29.461875 5.936875 -29.461875 5.936875 -27 6 C-26.67 10.29 -26.34 14.58 -26 19 C-21.71 19 -17.42 19 -13 19 C-13.020625 17.040625 -13.04125 15.08125 -13.0625 13.0625 C-13.08377188 11.04167124 -13.07244053 9.01964199 -13 7 C-11.26043342 5.26043342 -8.8063378 5.62809614 -6.4375 5.4375 C-5.42558594 5.35371094 -4.41367187 5.26992187 -3.37109375 5.18359375 C-2.58863281 5.12300781 -1.80617188 5.06242188 -1 5 C-0.67 3.35 -0.34 1.7 0 0 Z " fill="#F4F4F4" transform="translate(352,0)"/>
<path d="M0 0 C17.82 0 35.64 0 54 0 C54 19.14 54 38.28 54 58 C36.18 58 18.36 58 0 58 C0 38.86 0 19.72 0 0 Z " fill="#660B0B" transform="translate(127,165)"/>
<path d="M0 0 C4.29 0 8.58 0 13 0 C13.9765625 8.3984375 13.9765625 8.3984375 14 11 C12 13 12 13 9.1796875 13.1953125 C6.11979167 13.13020833 3.05989583 13.06510417 0 13 C0 17.29 0 21.58 0 26 C4.29 26 8.58 26 13 26 C12.95875 24.246875 12.9175 22.49375 12.875 20.6875 C12.75 15.375 12.75 15.375 15 12 C18.63 12 22.26 12 26 12 C26 28.83 26 45.66 26 63 C8.51 63 -8.98 63 -27 63 C-27 60.03 -27 57.06 -27 54 C-22.43362969 50.95575313 -18.43284541 51.87216834 -13 52 C-13 47.71 -13 43.42 -13 39 C-17.29 39 -21.58 39 -26 39 C-25.938125 40.93875 -25.87625 42.8775 -25.8125 44.875 C-25.70703125 48.1796875 -25.70703125 48.1796875 -26 51 C-30.49585864 53.99723909 -33.72019701 52.6856887 -39 52 C-39 47.71 -39 43.42 -39 39 C-33.06 38.505 -33.06 38.505 -27 38 C-27.04125 36.39125 -27.0825 34.7825 -27.125 33.125 C-27.1953125 30.3828125 -27.1953125 30.3828125 -27 28 C-25 26 -25 26 -22.1796875 25.8046875 C-21.08914063 25.82789063 -19.99859375 25.85109375 -18.875 25.875 C-17.77929688 25.89304687 -16.68359375 25.91109375 -15.5546875 25.9296875 C-14.71164062 25.95289063 -13.86859375 25.97609375 -13 26 C-13.02320313 25.15695312 -13.04640625 24.31390625 -13.0703125 23.4453125 C-13.08835937 22.34960938 -13.10640625 21.25390625 -13.125 20.125 C-13.14820313 19.03445313 -13.17140625 17.94390625 -13.1953125 16.8203125 C-13 14 -13 14 -11 12 C-8.6171875 11.8046875 -8.6171875 11.8046875 -5.875 11.875 C-3.461875 11.936875 -3.461875 11.936875 -1 12 C-0.67 8.04 -0.34 4.08 0 0 Z " fill="#F1F1F1" transform="translate(352,308)"/>
<path d="M0 0 C7.64615016 5.59559171 12.83696186 11.11522956 14.4375 20.58984375 C15.02269389 29.0873467 11.81793574 36.57189188 6.2890625 42.984375 C-0.99634741 49.64343745 -7.70858505 50.57860628 -17.40234375 50.33984375 C-24.2766451 49.69047978 -28.05809586 47.25082768 -32.75 42.3125 C-37.85709795 35.98998286 -40.75868292 29.7892046 -40.38671875 21.5546875 C-39.30266649 14.39337255 -36.6206756 8.66104806 -31 4 C-30.236875 3.29875 -29.47375 2.5975 -28.6875 1.875 C-20.19071745 -4.05298783 -9.14646111 -5.41566776 0 0 Z " fill="#FCFDFC" transform="translate(177,252)"/>
<path d="M0 0 C6.45273173 3.97091183 9.44142734 9.96612328 12 17 C13.16785565 23.53239581 12.07062836 30.12575444 9 36 C4.91883627 41.81683107 0.11955142 47.32740059 -7 49 C-15.123071 49.88091698 -23.14041425 50.32701831 -30.17578125 45.54296875 C-36.37436936 40.30005161 -40.95730578 33.95825267 -42.3828125 25.8125 C-42.77075665 18.57087588 -40.55145281 11.51559627 -36.3046875 5.6640625 C-26.1758032 -5.36698963 -12.96908478 -6.77724743 0 0 Z " fill="#FCFDFC" transform="translate(243,253)"/>
<path d="M0 0 C27.39 0 54.78 0 83 0 C83 29.04 83 58.08 83 88 C55.61 88 28.22 88 0 88 C0 58.96 0 29.92 0 0 Z M7 7 C7 31.42 7 55.84 7 81 C29.77 81 52.54 81 76 81 C76 56.58 76 32.16 76 7 C53.23 7 30.46 7 7 7 Z " fill="#8392E3" transform="translate(181,134)"/>
<path d="M0 0 C17.82 0 35.64 0 54 0 C54 19.14 54 38.28 54 58 C36.18 58 18.36 58 0 58 C0 38.86 0 19.72 0 0 Z M8 8 C8 21.86 8 35.72 8 50 C20.54 50 33.08 50 46 50 C46 36.14 46 22.28 46 8 C33.46 8 20.92 8 8 8 Z " fill="#EB1F1C" transform="translate(127,165)"/>
<path d="M0 0 C2.908125 0.0309375 2.908125 0.0309375 5.875 0.0625 C5.875 4.0225 5.875 7.9825 5.875 12.0625 C1.255 12.0625 -3.365 12.0625 -8.125 12.0625 C-8.125 8.4325 -8.125 4.8025 -8.125 1.0625 C-5.36047967 -0.31976016 -3.0788637 -0.03275387 0 0 Z M-18.125 12.0625 C-14.825 12.0625 -11.525 12.0625 -8.125 12.0625 C-7.795 16.6825 -7.465 21.3025 -7.125 26.0625 C-4.485 26.0625 -1.845 26.0625 0.875 26.0625 C-0.43398733 30.29153599 -1.89505563 34.22699568 -4.125 38.0625 C-5.115 38.3925 -6.105 38.7225 -7.125 39.0625 C-7.063125 40.609375 -7.063125 40.609375 -7 42.1875 C-7.12075149 45.93079627 -7.77372018 48.59984547 -9.125 52.0625 C-12.095 52.0625 -15.065 52.0625 -18.125 52.0625 C-18.125 38.8625 -18.125 25.6625 -18.125 12.0625 Z " fill="#EFEFEF" transform="translate(18.125,71.9375)"/>
<path d="M0 0 C4.29 0 8.58 0 13 0 C14.32229189 2.64458379 14.09677194 4.67761301 14.0625 7.625 C14.05347656 8.62789063 14.04445313 9.63078125 14.03515625 10.6640625 C14.02355469 11.43492187 14.01195312 12.20578125 14 13 C14.69867188 12.98839844 15.39734375 12.97679687 16.1171875 12.96484375 C17.02726562 12.95582031 17.93734375 12.94679688 18.875 12.9375 C20.23238281 12.92009766 20.23238281 12.92009766 21.6171875 12.90234375 C24 13 24 13 26 14 C26 17.3 26 20.6 26 24 C13.13 24 0.26 24 -13 24 C-13 20.37 -13 16.74 -13 13 C-9.04 13 -5.08 13 -1 13 C-0.67 8.71 -0.34 4.42 0 0 Z " fill="#F6F6F6" transform="translate(352,347)"/>
<path d="M0 0 C4.29 0 8.58 0 13 0 C14.32229189 2.64458379 14.09677194 4.67761301 14.0625 7.625 C14.05347656 8.62789063 14.04445313 9.63078125 14.03515625 10.6640625 C14.02355469 11.43492187 14.01195313 12.20578125 14 13 C14.69867188 12.98839844 15.39734375 12.97679687 16.1171875 12.96484375 C17.02726562 12.95582031 17.93734375 12.94679688 18.875 12.9375 C20.23238281 12.92009766 20.23238281 12.92009766 21.6171875 12.90234375 C24 13 24 13 26 14 C26 17.3 26 20.6 26 24 C13.13 24 0.26 24 -13 24 C-13 20.37 -13 16.74 -13 13 C-9.04 13 -5.08 13 -1 13 C-0.67 8.71 -0.34 4.42 0 0 Z " fill="#F6F6F6" transform="translate(37,347)"/>
<path d="M0 0 C12.54 0 25.08 0 38 0 C38 1.65 38 3.3 38 5 C36.33657163 6.66342837 34.2174291 6.36048097 31.9375 6.5625 C29.4934375 6.7790625 29.4934375 6.7790625 27 7 C26.67 10.96 26.34 14.92 26 19 C21.38 19 16.76 19 12 19 C12 14.71 12 10.42 12 6 C9.3084375 6.2165625 9.3084375 6.2165625 6.5625 6.4375 C5.55316406 6.51871094 4.54382813 6.59992187 3.50390625 6.68359375 C1.06359221 6.73211468 1.06359221 6.73211468 0 8 C-0.23363881 9.84891946 -0.41303635 11.70488031 -0.5625 13.5625 C-0.706875 15.356875 -0.85125 17.15125 -1 19 C-5.29 19 -9.58 19 -14 19 C-14 14.71 -14 10.42 -14 6 C-8.06 5.505 -8.06 5.505 -2 5 C-1.34 3.35 -0.68 1.7 0 0 Z " fill="#FCFCFC" transform="translate(51,0)"/>
<path d="M0 0 C3.96 0 7.92 0 12 0 C12 10.56 12 21.12 12 32 C8.04 32 4.08 32 0 32 C-1.92572521 28.14854957 -1.04883218 23.19956748 -1 19 C-5.29 19 -9.58 19 -14 19 C-14 14.71 -14 10.42 -14 6 C-8.06 5.505 -8.06 5.505 -2 5 C-1.34 3.35 -0.68 1.7 0 0 Z " fill="#F0F0F0" transform="translate(366,0)"/>
<path d="M0 0 C3.96 0 7.92 0 12 0 C12 4.62 12 9.24 12 14 C8.04 14 4.08 14 0 14 C0.020625 15.794375 0.04125 17.58875 0.0625 19.4375 C0.0838122 21.29166122 0.07226502 23.14712498 0 25 C-1.66030882 26.66030882 -3.59753597 26.28918251 -5.875 26.375 C-10.67725059 26.31325678 -10.67725059 26.31325678 -13.125 23.9375 C-14.14971266 20.49739321 -14.21005969 17.5710148 -14 14 C-7.565 13.505 -7.565 13.505 -1 13 C-0.67 8.71 -0.34 4.42 0 0 Z " fill="#EFEFEF" transform="translate(366,58)"/>
<path d="M0 0 C1.50046875 0.00386719 1.50046875 0.00386719 3.03125 0.0078125 C4.0315625 0.00523437 5.031875 0.00265625 6.0625 0 C8.53125 0.1328125 8.53125 0.1328125 9.53125 1.1328125 C9.67435287 4.8019702 9.57346662 8.45996691 9.53125 12.1328125 C3.59125 12.6278125 3.59125 12.6278125 -2.46875 13.1328125 C-2.613125 14.9065625 -2.7575 16.6803125 -2.90625 18.5078125 C-3.34375 23.8828125 -3.34375 23.8828125 -4.46875 26.1328125 C-7.76875 26.1328125 -11.06875 26.1328125 -14.46875 26.1328125 C-14.46875 21.5128125 -14.46875 16.8928125 -14.46875 12.1328125 C-11.16875 11.8028125 -7.86875 11.4728125 -4.46875 11.1328125 C-4.324375 9.5034375 -4.18 7.8740625 -4.03125 6.1953125 C-3.49897741 0.18823613 -3.49897741 0.18823613 0 0 Z " fill="#EFEFEF" transform="translate(14.46875,281.8671875)"/>
<path d="M0 0 C4.29 0 8.58 0 13 0 C13 4.29 13 8.58 13 13 C10.23307292 13.22786458 7.46614583 13.45572917 4.69921875 13.68359375 C1.90624401 13.91812559 1.90624401 13.91812559 -1 15 C-1 18.63 -1 22.26 -1 26 C-4.3 26 -7.6 26 -11 26 C-11 22.04 -11 18.08 -11 14 C-9.535625 13.855625 -8.07125 13.71125 -6.5625 13.5625 C-3.48153302 13.46504174 -3.48153302 13.46504174 -1 12 C-0.76572222 9.98405418 -0.58663876 7.961526 -0.4375 5.9375 C-0.293125 3.978125 -0.14875 2.01875 0 0 Z " fill="#FEFEFE" transform="translate(11,32)"/>
<path d="M0 0 C4.29 0 8.58 0 13 0 C13 4.29 13 8.58 13 13 C10.23307292 13.22786458 7.46614583 13.45572917 4.69921875 13.68359375 C1.90624401 13.91812559 1.90624401 13.91812559 -1 15 C-1 17.97 -1 20.94 -1 24 C-4.3 24 -7.6 24 -11 24 C-11 20.7 -11 17.4 -11 14 C-9.535625 13.855625 -8.07125 13.71125 -6.5625 13.5625 C-3.48153302 13.46504174 -3.48153302 13.46504174 -1 12 C-0.76572222 9.98405418 -0.58663876 7.961526 -0.4375 5.9375 C-0.293125 3.978125 -0.14875 2.01875 0 0 Z " fill="#FEFEFE" transform="translate(11,347)"/>
<path d="M0 0 C0.02687279 1.81242052 0.04633715 3.62495233 0.0625 5.4375 C0.07410156 6.44683594 0.08570313 7.45617187 0.09765625 8.49609375 C0 11 0 11 -1 12 C-2.85287502 12.07226502 -4.70833878 12.0838122 -6.5625 12.0625 C-7.57441406 12.05347656 -8.58632813 12.04445313 -9.62890625 12.03515625 C-10.80259766 12.01775391 -10.80259766 12.01775391 -12 12 C-12 15.3 -12 18.6 -12 22 C-16.62 22 -21.24 22 -26 22 C-26.29296875 15.9453125 -26.29296875 15.9453125 -26 14 C-22.83759418 11.89172945 -21.49342531 11.66182535 -17.8125 11.375 C-16.91144531 11.30023438 -16.01039063 11.22546875 -15.08203125 11.1484375 C-14.39496094 11.09945313 -13.70789063 11.05046875 -13 11 C-12.93683594 10.24332031 -12.87367188 9.48664063 -12.80859375 8.70703125 C-11.73446617 5.11103891 -10.29433137 4.48193148 -7.0625 2.6875 C-6.16660156 2.17574219 -5.27070313 1.66398437 -4.34765625 1.13671875 C-2 0 -2 0 0 0 Z " fill="#EFEFEF" transform="translate(299,349)"/>
<path d="M0 0 C4.62 0 9.24 0 14 0 C14 1.65 14 3.3 14 5 C10.11498265 6.94250868 5.25705445 6.65349557 1 7 C0.67 10.96 0.34 14.92 0 19 C-3.96 19 -7.92 19 -12 19 C-12.09765625 9.72265625 -12.09765625 9.72265625 -12 7 C-10.33657163 5.33657163 -8.2174291 5.63951903 -5.9375 5.4375 C-4.55884766 5.31181641 -4.55884766 5.31181641 -3.15234375 5.18359375 C-2.44207031 5.12300781 -1.73179687 5.06242188 -1 5 C-0.67 3.35 -0.34 1.7 0 0 Z " fill="#EFEFEF" transform="translate(299,0)"/>
<path d="M0 0 C3.96 0 7.92 0 12 0 C12 1.65 12 3.3 12 5 C8.37 5 4.74 5 1 5 C-0.00259507 8.00778521 -0.30314642 10.53820647 -0.5625 13.6875 C-0.706875 15.440625 -0.85125 17.19375 -1 19 C-5.29 19 -9.58 19 -14 19 C-14 14.71 -14 10.42 -14 6 C-8.06 5.505 -8.06 5.505 -2 5 C-1.34 3.35 -0.68 1.7 0 0 Z " fill="#FEFEFE" transform="translate(366,0)"/>
<path d="M0 0 C4.29 0 8.58 0 13 0 C13.87890625 10.05859375 13.87890625 10.05859375 14 13 C13 14 13 14 10.05859375 14.09765625 C6.70572917 14.06510417 3.35286458 14.03255208 0 14 C0 9.38 0 4.76 0 0 Z " fill="#FEFEFE" transform="translate(352,58)"/>
<path d="M0 0 C3.09244792 0.03255208 6.18489583 0.06510417 9.27734375 0.09765625 C9.27734375 4.71765625 9.27734375 9.33765625 9.27734375 14.09765625 C4.98734375 14.09765625 0.69734375 14.09765625 -3.72265625 14.09765625 C-3.8203125 4.0390625 -3.8203125 4.0390625 -3.72265625 1.09765625 C-2.72265625 0.09765625 -2.72265625 0.09765625 0 0 Z " fill="#FEFEFE" transform="translate(14.72265625,293.90234375)"/>
<path d="M0 0 C4.29 0 8.58 0 13 0 C13.125 11.75 13.125 11.75 12 14 C10.18757948 14.02687279 8.37504767 14.04633715 6.5625 14.0625 C5.55316406 14.07410156 4.54382813 14.08570312 3.50390625 14.09765625 C1 14 1 14 0 13 C-0.14393457 8.66469082 -0.04212061 4.33842269 0 0 Z " fill="#EFEFEF" transform="translate(24,58)"/>
<path d="M0 0 C4.29 0 8.58 0 13 0 C13 4.29 13 8.58 13 13 C8.71 13 4.42 13 0 13 C0 8.71 0 4.42 0 0 Z " fill="#FFFFFF" transform="translate(352,347)"/>
<path d="M0 0 C4.29 0 8.58 0 13 0 C13 4.29 13 8.58 13 13 C8.71 13 4.42 13 0 13 C0 8.71 0 4.42 0 0 Z " fill="#FFFFFF" transform="translate(37,347)"/>
<path d="M0 0 C4.29 0 8.58 0 13 0 C13 4.29 13 8.58 13 13 C8.71 13 4.42 13 0 13 C0 8.71 0 4.42 0 0 Z " fill="#FFFFFF" transform="translate(11,321)"/>
<path d="M0 0 C4.29 0 8.58 0 13 0 C13 4.29 13 8.58 13 13 C8.71 13 4.42 13 0 13 C0 8.71 0 4.42 0 0 Z " fill="#FFFFFF" transform="translate(352,32)"/>
<path d="M0 0 C4.29 0 8.58 0 13 0 C13 4.29 13 8.58 13 13 C8.71 13 4.42 13 0 13 C0 8.71 0 4.42 0 0 Z " fill="#FFFFFF" transform="translate(37,32)"/>
<path d="M0 0 C4.29 0 8.58 0 13 0 C13 4.29 13 8.58 13 13 C8.71 13 4.42 13 0 13 C0 8.71 0 4.42 0 0 Z " fill="#FFFFFF" transform="translate(326,6)"/>
<path d="M0 0 C4.29 0 8.58 0 13 0 C13 4.29 13 8.58 13 13 C8.71 13 4.42 13 0 13 C0 8.71 0 4.42 0 0 Z " fill="#FFFFFF" transform="translate(11,6)"/>
<path d="M0 0 C3.63 0 7.26 0 11 0 C11 4.62 11 9.24 11 14 C7.04 14 3.08 14 -1 14 C-1.125 2.25 -1.125 2.25 0 0 Z " fill="#EFEFEF" transform="translate(367,268)"/>
<path d="M0 0 C0.66 0.33 1.32 0.66 2 1 C1.85924795 3.93782469 1.7126162 6.87515171 1.5625 9.8125 C1.50352539 11.06256836 1.50352539 11.06256836 1.44335938 12.33789062 C1.40146484 13.14033203 1.35957031 13.94277344 1.31640625 14.76953125 C1.26141968 15.87711792 1.26141968 15.87711792 1.20532227 17.00708008 C1 19 1 19 0 22 C-3.3 22 -6.6 22 -10 22 C-10 17.38 -10 12.76 -10 8 C-6.7 8 -3.4 8 0 8 C0 5.36 0 2.72 0 0 Z " fill="#F0F0F0" transform="translate(10,260)"/>
<path d="M0 0 C2.83203125 0.03255208 5.6640625 0.06510417 8.49609375 0.09765625 C8.49609375 4.38765625 8.49609375 8.67765625 8.49609375 13.09765625 C4.53609375 13.09765625 0.57609375 13.09765625 -3.50390625 13.09765625 C-3.6015625 3.8203125 -3.6015625 3.8203125 -3.50390625 1.09765625 C-2.50390625 0.09765625 -2.50390625 0.09765625 0 0 Z " fill="#FEFEFE" transform="translate(369.50390625,333.90234375)"/>
<path d="M0 0 C2.83203125 0.03255208 5.6640625 0.06510417 8.49609375 0.09765625 C8.49609375 4.38765625 8.49609375 8.67765625 8.49609375 13.09765625 C4.53609375 13.09765625 0.57609375 13.09765625 -3.50390625 13.09765625 C-3.6015625 3.8203125 -3.6015625 3.8203125 -3.50390625 1.09765625 C-2.50390625 0.09765625 -2.50390625 0.09765625 0 0 Z " fill="#FEFEFE" transform="translate(369.50390625,18.90234375)"/>
<path d="M0 0 C2.83203125 0.03255208 5.6640625 0.06510417 8.49609375 0.09765625 C8.49609375 4.38765625 8.49609375 8.67765625 8.49609375 13.09765625 C4.53609375 13.09765625 0.57609375 13.09765625 -3.50390625 13.09765625 C-3.6015625 3.8203125 -3.6015625 3.8203125 -3.50390625 1.09765625 C-2.50390625 0.09765625 -2.50390625 0.09765625 0 0 Z " fill="#FEFEFE" transform="translate(54.50390625,18.90234375)"/>
<path d="M0 0 C4.62 0 9.24 0 14 0 C14 4.29 14 8.58 14 13 C8.87378871 12.68615033 5.59872997 11.49149822 1.28515625 8.7421875 C0 7 0 7 0 0 Z " fill="#F0F0F0" transform="translate(299,19)"/>
<path d="M0 0 C6 0 6 0 8.1171875 1.79296875 C8.69726562 2.58316406 9.27734375 3.37335938 9.875 4.1875 C10.47054687 4.96480469 11.06609375 5.74210937 11.6796875 6.54296875 C13 9 13 9 13 14 C8.71 14 4.42 14 0 14 C0 9.38 0 4.76 0 0 Z " fill="#F0F0F0" transform="translate(24,294)"/>
<path d="M0 0 C3.96 0 7.92 0 12 0 C12 3.96 12 7.92 12 12 C8.04 12 4.08 12 0 12 C0 8.04 0 4.08 0 0 Z " fill="#FFFFFF" transform="translate(366,46)"/>
<path d="M0 0 C3.3 0 6.6 0 10 0 C10.22142255 1.95689659 10.4267568 3.91561952 10.625 5.875 C10.74101562 6.96554687 10.85703125 8.05609375 10.9765625 9.1796875 C10.98429688 10.11039062 10.99203125 11.04109375 11 12 C9 14 9 14 6.8359375 14.1953125 C4.55729167 14.13020833 2.27864583 14.06510417 0 14 C0 9.38 0 4.76 0 0 Z " fill="#EFEFEF" transform="translate(0,347)"/>
<path d="M0 0 C3.3 0 6.6 0 10 0 C10.22142255 1.95689659 10.4267568 3.91561952 10.625 5.875 C10.74101562 6.96554688 10.85703125 8.05609375 10.9765625 9.1796875 C10.98429688 10.11039063 10.99203125 11.04109375 11 12 C9 14 9 14 6.8359375 14.1953125 C4.55729167 14.13020833 2.27864583 14.06510417 0 14 C0 9.38 0 4.76 0 0 Z " fill="#EFEFEF" transform="translate(0,32)"/>
<path d="M0 0 C4.29 0 8.58 0 13 0 C13 4.62 13 9.24 13 14 C8 14 8 14 5.76171875 11.953125 C4.73498047 10.61507812 4.73498047 10.61507812 3.6875 9.25 C2.99011719 8.36828125 2.29273438 7.4865625 1.57421875 6.578125 C0 4 0 4 0 0 Z " fill="#F0F0F0" transform="translate(339,58)"/>
<path d="M0 0 C3.3 0 6.6 0 10 0 C10.125 9.625 10.125 9.625 9 13 C6.03 13 3.06 13 0 13 C0 8.71 0 4.42 0 0 Z " fill="#EFEFEF" transform="translate(0,111)"/>
<path d="M0 0 C4.14279324 1.03569831 5.94856904 2.21093379 9.25 4.8125 C10.58804688 5.84310547 10.58804688 5.84310547 11.953125 6.89453125 C14 9 14 9 14 13 C9.38 13 4.76 13 0 13 C0 8.71 0 4.42 0 0 Z " fill="#F0F0F0" transform="translate(63,334)"/>
<path d="M0 0 C3.96 0 7.92 0 12 0 C12 3.3 12 6.6 12 10 C8.04 10 4.08 10 0 10 C0 6.7 0 3.4 0 0 Z " fill="#FFFFFF" transform="translate(366,361)"/>
<path d="M0 0 C3.96 0 7.92 0 12 0 C12 3.3 12 6.6 12 10 C8.04 10 4.08 10 0 10 C0 6.7 0 3.4 0 0 Z " fill="#FFFFFF" transform="translate(51,361)"/>
<path d="M0 0 C3.3 0 6.6 0 10 0 C10 3.96 10 7.92 10 12 C6.7 12 3.4 12 0 12 C0 8.04 0 4.08 0 0 Z " fill="#FFFFFF" transform="translate(0,308)"/>
<path d="M0 0 C3.3 0 6.6 0 10 0 C10 3.96 10 7.92 10 12 C6.7 12 3.4 12 0 12 C0 8.04 0 4.08 0 0 Z " fill="#FFFFFF" transform="translate(0,98)"/>
<path d="M0 0 C1.98 0 3.96 0 6 0 C9.42857143 8.42857143 9.42857143 8.42857143 9 13 C6.03 13 3.06 13 0 13 C0 8.71 0 4.42 0 0 Z " fill="#EFEFEF" transform="translate(0,242)"/>
<path d="M0 0 C0.74636719 0.12375 1.49273437 0.2475 2.26171875 0.375 C2.45573508 2.18681405 2.6417625 3.99948532 2.82421875 5.8125 C2.92863281 6.82183594 3.03304688 7.83117187 3.140625 8.87109375 C3.20056641 10.11052734 3.20056641 10.11052734 3.26171875 11.375 C2.26171875 12.375 2.26171875 12.375 -0.4609375 12.47265625 C-2.11416016 12.45525391 -2.11416016 12.45525391 -3.80078125 12.4375 C-4.90550781 12.42847656 -6.01023437 12.41945313 -7.1484375 12.41015625 C-8.43041016 12.39275391 -8.43041016 12.39275391 -9.73828125 12.375 C-8.6992072 10.3627298 -7.63120458 8.36537476 -6.55078125 6.375 C-5.95910156 5.26125 -5.36742187 4.1475 -4.7578125 3 C-2.73828125 0.375 -2.73828125 0.375 0 0 Z " fill="#EFEFEF" transform="translate(362.73828125,281.625)"/>
<path d="M0 0 C4.29 0 8.58 0 13 0 C12.67 1.32 12.34 2.64 12 4 C9.47524538 5.26237731 7.68799534 5.09856404 4.875 5.0625 C3.96492188 5.05347656 3.05484375 5.04445313 2.1171875 5.03515625 C1.41851562 5.02355469 0.71984375 5.01195312 0 5 C0 3.35 0 1.7 0 0 Z " fill="#EFEFEF" transform="translate(116,0)"/>
<path d="M0 0 C3.96 0 7.92 0 12 0 C12 1.65 12 3.3 12 5 C8.04 5 4.08 5 0 5 C0 3.35 0 1.7 0 0 Z " fill="#FFFFFF" transform="translate(313,0)"/>
<path d="M0 0 C3.96 0 7.92 0 12 0 C12 1.65 12 3.3 12 5 C8.04 5 4.08 5 0 5 C0 3.35 0 1.7 0 0 Z " fill="#FFFFFF" transform="translate(103,0)"/>
<path d="M0 0 C3.96 0 7.92 0 12 0 C12 1.65 12 3.3 12 5 C8.04 5 4.08 5 0 5 C0 3.35 0 1.7 0 0 Z " fill="#FFFFFF" transform="translate(77,0)"/>
<path d="M0 0 C0.33 0 0.66 0 1 0 C1 3.96 1 7.92 1 12 C-1.97 12 -4.94 12 -8 12 C-6.85573734 10.186508 -5.70954608 8.37423275 -4.5625 6.5625 C-3.60537109 5.04849609 -3.60537109 5.04849609 -2.62890625 3.50390625 C-1 1 -1 1 0 0 Z " fill="#F0F0F0" transform="translate(351,296)"/>
<path d="M0 0 C0 2.97 0 5.94 0 9 C-3.63 9 -7.26 9 -11 9 C-2.25 0 -2.25 0 0 0 Z " fill="#F0F0F0" transform="translate(313,338)"/>
<path d="M0 0 C3.3 0 6.6 0 10 0 C10 1.65 10 3.3 10 5 C6.7 5 3.4 5 0 5 C0 3.35 0 1.7 0 0 Z " fill="#FFFFFF" transform="translate(0,0)"/>
<path d="M0 0 C6.93 0 13.86 0 21 0 C21 0.33 21 0.66 21 1 C17.7 1 14.4 1 11 1 C11 2.65 11 4.3 11 6 C7.37 4.68 3.74 3.36 0 2 C0 1.34 0 0.68 0 0 Z " fill="#F2F2F2" transform="translate(262,5)"/>
<path d="M0 0 C4.62 0 9.24 0 14 0 C14 1.65 14 3.3 14 5 C8.72250715 4.46148032 4.74354436 3.22656164 0 1 C0 0.67 0 0.34 0 0 Z " fill="#F0F0F0" transform="translate(247,0)"/>
<path d="M0 0 C0.33 0 0.66 0 1 0 C1 4.62 1 9.24 1 14 C-0.65 14 -2.3 14 -4 14 C-3.00956295 9.16371695 -2.04301154 4.52381127 0 0 Z " fill="#F0F0F0" transform="translate(377,242)"/>
<path d="M0 0 C1.32 0 2.64 0 4 0 C3.58846263 4.97093824 3.20399168 9.44508386 1 14 C0.67 14 0.34 14 0 14 C0 9.38 0 4.76 0 0 Z " fill="#F0F0F0" transform="translate(0,137)"/>
<path d="M0 0 C1.41791408 0.45445964 2.83428046 0.91374944 4.25 1.375 C5.43335937 1.75785156 5.43335937 1.75785156 6.640625 2.1484375 C9 3 9 3 13 5 C8.71 5 4.42 5 0 5 C0 3.35 0 1.7 0 0 Z " fill="#EFEFEF" transform="translate(116,366)"/>
<path d="M0 0 C2.36574234 3.5486135 2.10865265 4.5764525 1.625 8.6875 C1.45871094 10.17830078 1.45871094 10.17830078 1.2890625 11.69921875 C1.14597656 12.83810547 1.14597656 12.83810547 1 14 C1.66 14.33 2.32 14.66 3 15 C2.34 15 1.68 15 1 15 C1 17.31 1 19.62 1 22 C0.67 22 0.34 22 0 22 C0 19.69 0 17.38 0 15 C-3.3 15 -6.6 15 -10 15 C-10 14.67 -10 14.34 -10 14 C-6.7 14 -3.4 14 0 14 C0 9.38 0 4.76 0 0 Z " fill="#F5F5F5" transform="translate(10,96)"/>
<path d="M0 0 C0.33 0 0.66 0 1 0 C1 1.65 1 3.3 1 5 C2.98 5 4.96 5 7 5 C7 5.33 7 5.66 7 6 C5.02 6 3.04 6 1 6 C0.67 6.66 0.34 7.32 0 8 C0 7.34 0 6.68 0 6 C-0.84304687 6.09539063 -1.68609375 6.19078125 -2.5546875 6.2890625 C-3.65039062 6.39992188 -4.74609375 6.51078125 -5.875 6.625 C-7.51082031 6.79902344 -7.51082031 6.79902344 -9.1796875 6.9765625 C-10.57574219 6.98816406 -10.57574219 6.98816406 -12 7 C-12.66 6.34 -13.32 5.68 -14 5 C-9.38 5 -4.76 5 0 5 C0 3.35 0 1.7 0 0 Z " fill="#F5F5F5" transform="translate(115,0)"/>
</svg>
